<svg
	viewBox="0 0 24 24"
	xmlns="http://www.w3.org/2000/svg"
>
	<path
		fill-rule="evenodd"
		clip-rule="evenodd"
		d="M16.4878 1L18 2.5122V21.4878L16.4878 22.9756L7.5122 23L6 21.4878V2.5122L7.5122 1H16.4878ZM12.0976 21.4878C12.6342 21.4878 13.0976 21.0488 13.0976 20.4878C13.0976 19.9268 12.6342 19.4878 12.0976 19.4878C11.5366 19.4878 11.0732 19.9268 11.0732 20.4878C11.0732 21.0488 11.5366 21.4878 12.0976 21.4878ZM16.0732 18.4878V4.4878H8.07318V18.4878H16.0732ZM12 14.4878C12.561 14.4878 13 14.9268 13 15.4878C13 16.0244 12.561 16.4634 12 16.4634C11.439 16.4634 11 16.0244 11 15.4878C11 14.9268 11.439 14.4878 12 14.4878ZM12.6829 13.1707H11.3902L10.7317 7.14635L11.3902 6.48781H12.6829L13.3415 7.14635L12.6829 13.1707Z"
	></path>
</svg>
