<svg
	viewBox="0 0 48 24"
	xmlns="http://www.w3.org/2000/svg"
>
	<path
		fill-rule="evenodd"
		clip-rule="evenodd"
		d="M22.64 7.67569H25.0258C25.0258 7.67569 27.3879 7.62805 27.3641 9.7751C27.3406 11.3738 25.0739 11.6122 25.0739 11.6122H22.6403V7.67569H22.64ZM29.7773 15.3826C29.8444 15.6948 30.0702 16.039 30.8238 16.0744C31.8257 16.0979 32.3984 15.716 32.3984 15.716V16.4557C32.3984 16.4557 31.3009 16.7185 30.7759 16.7185C30.2273 16.7185 28.6048 16.5989 28.6048 15.096C28.6048 13.8794 29.9409 13.4975 30.7042 13.4975C32.0403 13.5452 32.6845 14.0226 32.6607 15.3823C32.6607 15.402 30.4623 15.3873 29.7773 15.3826ZM29.7805 14.7856H31.6111C31.6111 14.7856 31.6111 14.0938 30.7282 14.0938C30.0642 14.0938 29.847 14.4518 29.7805 14.7856ZM35.5715 14.0386C35.8363 13.7512 36.281 13.5211 37.027 13.5211C38.5063 13.5211 38.745 14.7617 38.7212 15.0957C38.6974 15.4297 38.578 16.6942 36.8605 16.6942C36.2117 16.6942 35.8146 16.4727 35.5717 16.1979V16.5986H34.4025V12.304H35.5717V14.0386H35.5715ZM36.5739 16.0262C37.2657 16.0021 37.5758 15.4061 37.5758 15.1198C37.5758 14.8335 37.4086 14.237 36.5257 14.237C35.8408 14.237 35.6322 14.7544 35.5715 15.0073V15.3185C35.6317 15.5763 35.8413 16.0262 36.5739 16.0262ZM46.6663 15.9071L46.6898 16.5753C46.6898 16.5753 46.1412 16.6944 45.7834 16.6944C45.4256 16.6944 44.4946 16.4798 44.4946 15.5729V14.1891H43.5168V13.569H44.4946V12.8293H45.6879V13.569H46.6663V14.1891H45.6879V15.3823C45.6879 15.3823 45.6879 15.9788 46.1653 15.9788C46.6422 15.9788 46.6663 15.9071 46.6663 15.9071ZM43.0396 8.31983H44.4234V11.6361H45.5921V8.31983H47V7.62779H43.0396V8.31983ZM42.5622 8.48682L42.7054 7.79478C42.7054 7.79478 42.1089 7.53252 41.0593 7.53252C40.0333 7.53252 38.3872 8.1052 38.3872 9.656C38.3872 11.183 40.1288 11.7078 41.2025 11.7078C42.2761 11.7078 42.6339 11.5408 42.6339 11.5408L42.5149 10.7773C42.5149 10.7773 42.0374 10.9205 41.2261 10.9205C40.4387 10.8966 39.6281 10.2763 39.6281 9.58455C39.6517 8.96423 40.3673 8.27219 41.2983 8.27219C42.0136 8.27219 42.5622 8.48682 42.5622 8.48682ZM32.0165 7.65187C32.0165 7.65187 33.973 7.5566 33.973 8.70171C33.973 9.68009 32.852 9.75154 32.852 9.75154C32.852 9.75154 33.1619 9.79918 33.3053 10.0138C33.4244 10.2046 34.2117 11.6363 34.2117 11.6363H33.0185C33.0185 11.6363 32.8277 11.3976 32.7321 11.2309C32.6607 11.0639 32.4458 10.7058 32.4458 10.7058C32.4458 10.7058 32.279 10.1093 31.7061 10.1093C31.6917 10.1093 31.4588 10.1004 31.2766 10.0936V11.6363H30.1315V7.65187H32.0165ZM31.2768 9.44138H31.8974C31.8974 9.44138 32.7562 9.39348 32.8038 8.86869C32.8279 8.36772 31.9691 8.29601 31.9691 8.29601H31.2768V9.44138ZM36.0724 10.0617H37.9813V9.32203H36.0724V8.41536H38.1485V7.65187H34.904V11.6363H38.1726V10.9205H36.0727V10.0617H36.0724ZM40.7248 13.1154H41.894V12.304H40.7248V13.1154ZM40.7248 16.5989H41.894V13.569H40.7248V16.5989ZM27.9847 11.6363H29.1298V7.65187H27.9847V11.6363ZM22.64 12.6385H25.0258C25.0258 12.6385 27.3879 12.5904 27.3641 14.7379C27.3406 16.3364 25.0739 16.5753 25.0739 16.5753H22.6403V12.6385H22.64ZM23.8092 15.8357H24.5727C24.5727 15.8357 26.1473 15.7401 26.1473 14.5233C26.1473 13.3065 24.4771 13.1871 24.4771 13.1871H23.8092V15.8357ZM23.8092 10.8728H24.5727C24.5727 10.8728 26.1473 10.7535 26.1473 9.56047C26.1473 8.31983 24.4771 8.22455 24.4771 8.22455H23.8092V10.8728ZM11.9273 10.0476V18.0306C11.9273 18.0306 7.29847 17.1954 7.29847 14.0223C7.29873 11.4916 10.7252 10.376 11.9273 10.0476ZM11.9273 9.89864C9.1453 9.69736 2.83714 11.0013 2.83714 13.8551C2.83714 15.7158 6.17745 18.436 11.6172 18.5075C11.8318 18.5075 18.0112 18.2688 17.9159 11.6361C17.8358 6.06521 13.6663 5.08944 12.333 4.91958V4.5801C17.6484 4.91748 21.8289 8.1141 21.8289 11.9939C21.8289 16.0977 17.1524 19.4377 11.4025 19.4377C5.65266 19.4377 1 16.0974 1 11.9939C1 7.89031 5.6524 4.55 11.4025 4.55C11.5787 4.55 11.7538 4.55314 11.9276 4.55942V9.89864H11.9273Z"
	></path>
</svg>
