<svg
	viewBox="-3 -3 30 30"
	xmlns="http://www.w3.org/2000/svg"
>
	<path d="M12 2C6.46667 2 2 6.46667 2 12C2 17.5333 6.46667 22 12 22C17.5333 22 22 17.5333 22 12C22 6.46667 17.5333 2 12 2ZM13.1333 15.9333V16.4222C13.0222 16.5111 12.8667 16.5778 12.7111 16.6667C12.5556 16.7333 12.3778 16.8 12.2 16.8667C12.0222 16.9333 11.8444 16.9778 11.6667 17C11.4889 17.0222 11.3111 17.0444 11.1556 17.0444C10.8 17.0444 10.5778 16.9778 10.4444 16.8444C10.2889 16.7111 10.2222 16.5556 10.2222 16.4C10.2222 16.2222 10.2444 16.0444 10.2667 15.8667C10.2889 15.6889 10.3333 15.5111 10.3778 15.2889L11.3111 11.0444L10.4444 10.8444V10.3778C10.5778 10.3333 10.7556 10.2667 11 10.2C11.2222 10.1333 11.4667 10.0889 11.7333 10.0444C12 10 12.2444 9.95556 12.4889 9.93333C12.7333 9.91111 12.9556 9.88889 13.1556 9.88889L13.4 10.0444L12.1556 15.9333H13.1333ZM13.5556 8.46667C13.3556 8.64445 13.0667 8.73333 12.7333 8.73333C12.4222 8.73333 12.1556 8.64445 11.9333 8.46667C11.7333 8.28889 11.6222 8.06667 11.6222 7.77778C11.6222 7.46667 11.7333 7.22222 11.9333 7.04445C12.1333 6.86667 12.4 6.77778 12.7333 6.77778C13.0889 6.77778 13.3556 6.86667 13.5556 7.04445C13.7556 7.22222 13.8667 7.46667 13.8667 7.77778C13.8444 8.06667 13.7556 8.28889 13.5556 8.46667Z"></path>
</svg>
