<svg
	viewBox="0 0 24 24"
	xmlns="http://www.w3.org/2000/svg"
>
	<path
		fill-rule="evenodd"
		clip-rule="evenodd"
		d="M17.0724 1.1C18.761 1.1 20.1601 2.475 20.1601 4.16359C20.1601 5.87631 18.761 7.25131 17.0724 7.25131C15.3838 7.25131 14.0088 5.87631 14.0088 4.16359V4.0671C13.5022 3.99474 13.0439 3.94649 12.5856 3.94649C9.81145 3.94649 7.1097 5.29737 5.78294 7.68552L5.66233 7.90263L5.63821 7.87851L5.4211 7.27544L4.5768 6.84123L3.94961 7.05833C5.71057 3.99474 8.99128 2.04079 12.5856 2.04079C13.261 2.04079 13.9606 2.13728 14.6601 2.28202C15.215 1.55833 16.0834 1.1 17.0724 1.1ZM21.1491 6.96184C22.0416 8.5057 22.5 10.2425 22.5 11.9794C22.5 13.6921 22.0658 15.4048 21.1732 16.9487C20.8355 17.5518 20.4254 18.1066 19.943 18.6373C20.0877 18.9991 20.1601 19.4092 20.1601 19.7952C20.1601 20.3259 20.0394 20.8325 19.75 21.3149C19.171 22.3039 18.1579 22.8588 17.0723 22.8588C16.5658 22.8588 16.0351 22.714 15.5526 22.4487C14.5636 21.8697 14.0087 20.8566 14.0087 19.7711C14.0087 19.2645 14.1535 18.7338 14.4188 18.2513C14.9978 17.2623 16.0351 16.7075 17.1206 16.7075C17.6272 16.7075 18.182 16.8039 18.6403 17.1175L18.7127 17.1658C19.0263 16.7798 19.3158 16.3939 19.5329 16.0079C20.2565 14.7535 20.6184 13.3544 20.6184 11.9794C20.6184 10.7009 20.3289 9.37413 19.7017 8.24035L19.5811 8.02325H19.6052L20.2324 8.14386L21.0285 7.61316L21.1491 6.96184ZM12.6338 21.918L12.1272 21.4838L12.0789 20.5189L12.5132 20.0364V20.0123H12.2719C9.52193 20.0123 6.98903 18.4202 5.61404 16.0079C5.37281 15.5978 5.17982 15.1636 5.01096 14.7053C5.05921 14.6811 5.08333 14.6811 5.10746 14.657C6.09649 14.0781 6.65132 13.0649 6.65132 11.9794C6.65132 11.4728 6.50658 10.9421 6.24123 10.4597C5.66228 9.47062 4.625 8.91579 3.5636 8.91579C3.03289 8.91579 2.52632 9.06053 2.04386 9.32588C1.05482 9.90483 0.5 10.918 0.5 12.0035C0.5 12.5101 0.644737 13.0408 0.910088 13.5232C1.39254 14.3675 2.23684 14.8982 3.12939 15.043C3.34649 15.7184 3.63596 16.3456 3.97368 16.9487C5.75877 20.0605 9.08772 21.9421 12.6338 21.918Z"
	/>
</svg>
