<svg
	viewBox="-3 -3 30 30"
	xmlns="http://www.w3.org/2000/svg"
>
	<path d="M18.1077 7.57325C18.091 7.68002 18.0719 7.78918 18.0505 7.90131C17.3126 11.6896 14.7883 12.9982 11.5643 12.9982H9.92283C9.52855 12.9982 9.19631 13.2846 9.13488 13.6735L8.29443 19.0036L8.05644 20.5145C8.01647 20.7698 8.21331 21 8.47099 21H11.3824C11.7272 21 12.0201 20.7495 12.0743 20.4095L12.103 20.2616L12.6511 16.7829L12.6863 16.592C12.74 16.2509 13.0335 16.0003 13.3782 16.0003H13.8137C16.6344 16.0003 18.8426 14.8551 19.488 11.541C19.7576 10.1566 19.618 9.00063 18.9046 8.18762C18.6887 7.94247 18.4209 7.73907 18.1077 7.57325Z"></path>
	<path d="M17.3358 7.26546C17.223 7.23265 17.1067 7.20283 16.9874 7.17598C16.8675 7.14974 16.7447 7.12648 16.6182 7.1062C16.1756 7.03462 15.6907 7.00062 15.1712 7.00062H10.7858C10.6779 7.00062 10.5753 7.02507 10.4834 7.06921C10.2812 7.16644 10.1309 7.35791 10.0945 7.59233L9.16161 13.5011L9.13477 13.6734C9.1962 13.2845 9.52844 12.9982 9.92272 12.9982H11.5642C14.7882 12.9982 17.3125 11.689 18.0504 7.9013C18.0724 7.78917 18.0909 7.68001 18.1076 7.57324C17.9209 7.47422 17.7187 7.38952 17.501 7.31735C17.4473 7.29945 17.3919 7.28216 17.3358 7.26546Z"></path>
	<path d="M10.0945 7.59231C10.1309 7.35789 10.2812 7.16642 10.4835 7.06979C10.5759 7.02565 10.6779 7.00119 10.7859 7.00119H15.1712C15.6907 7.00119 16.1757 7.03519 16.6183 7.10677C16.7447 7.12705 16.8676 7.15031 16.9875 7.17656C17.1068 7.2034 17.2231 7.23322 17.3358 7.26603C17.3919 7.28273 17.4474 7.30003 17.5016 7.31733C17.7194 7.3895 17.9216 7.4748 18.1083 7.57322C18.3278 6.17328 18.1065 5.2201 17.3495 4.35699C16.5151 3.4068 15.009 3 13.0817 3H7.48673C7.09305 3 6.75724 3.28631 6.69639 3.67581L4.36594 18.4477C4.32001 18.7399 4.54548 19.0036 4.84015 19.0036H8.29437L9.16165 13.501L10.0945 7.59231Z"></path>
</svg>
