<svg
	viewBox="-3 -3 30 30"
	xmlns="http://www.w3.org/2000/svg"
>
	<path d="M19.0898 4.52001C17.2098 2.64001 14.7098 1.60001 12.0398 1.60001C6.54976 1.60001 2.07976 6.07001 2.07976 11.56C2.07976 13.31 2.53976 15.03 3.40976 16.54L1.99976 21.69L7.27976 20.31C8.72976 21.1 10.3698 21.52 12.0398 21.52C17.5298 21.52 21.9998 17.05 21.9998 11.56C21.9998 8.91001 20.9698 6.41001 19.0898 4.52001ZM12.0398 19.84C10.5498 19.84 9.08976 19.44 7.81976 18.69L7.51976 18.51L4.38976 19.33L5.22976 16.28L5.02976 15.97C4.19976 14.65 3.75976 13.12 3.76976 11.56C3.76976 7.00001 7.47976 3.29001 12.0498 3.29001C14.2598 3.29001 16.3398 4.15001 17.8998 5.72001C19.4598 7.28001 20.3198 9.36001 20.3198 11.57C20.3198 16.13 16.5998 19.84 12.0398 19.84ZM16.5798 13.64C16.3298 13.52 15.1098 12.91 14.8798 12.83C14.6498 12.75 14.4898 12.71 14.3198 12.95C14.1498 13.2 13.6798 13.76 13.5298 13.92C13.3898 14.09 13.2398 14.11 12.9898 13.98C12.7398 13.86 11.9398 13.59 10.9898 12.75C10.2498 12.09 9.74976 11.28 9.60976 11.03C9.45976 10.78 9.58976 10.65 9.71976 10.52C9.82976 10.41 9.96976 10.23 10.0898 10.08C10.2098 9.93001 10.2598 9.83001 10.3398 9.66001C10.4198 9.49001 10.3798 9.35001 10.3198 9.22001C10.2598 9.10001 9.75976 7.87001 9.54976 7.37001C9.34976 6.88001 9.13976 6.95001 8.98976 6.94001C8.84976 6.93001 8.67976 6.93001 8.50976 6.93001C8.33976 6.93001 8.06976 6.99001 7.84976 7.24001C7.62976 7.49001 6.97976 8.09001 6.97976 9.32001C6.97976 10.54 7.86976 11.73 7.99976 11.89C8.11976 12.06 9.74976 14.57 12.2498 15.65C12.8398 15.91 13.3098 16.06 13.6698 16.17C14.2698 16.36 14.8098 16.33 15.2398 16.27C15.7198 16.2 16.7098 15.67 16.9198 15.09C17.1298 14.51 17.1298 14.01 17.0598 13.91C16.9998 13.83 16.8298 13.77 16.5798 13.64Z"></path>
</svg>
